<svg width="24" height="24" viewBox="0 0 24 24" fill="none" xmlns="http://www.w3.org/2000/svg">
<path d="M5.9873 2.25C6.40091 2.25 6.6798 2.24833 6.9502 2.28613C7.65585 2.38486 8.31876 2.68267 8.86133 3.14453C9.06923 3.32152 9.25352 3.53069 9.52832 3.83984L9.67188 4.00195C9.9793 4.3478 10.0647 4.43855 10.1543 4.50488C10.299 4.61202 10.4654 4.68668 10.6416 4.72363C10.7507 4.7465 10.875 4.75 11.3379 4.75H15.5996C16.7072 4.75 17.5835 4.74909 18.2881 4.80664C19.0014 4.86492 19.6051 4.98683 20.1562 5.26758C21.05 5.72297 21.777 6.44999 22.2324 7.34375C22.5132 7.89486 22.6351 8.49863 22.6934 9.21191C22.7509 9.91651 22.75 10.7928 22.75 11.9004V15.5996C22.75 16.7072 22.7509 17.5835 22.6934 18.2881C22.6351 19.0014 22.5132 19.6051 22.2324 20.1562C21.777 21.05 21.05 21.777 20.1562 22.2324C19.6051 22.5132 19.0014 22.6351 18.2881 22.6934C17.5835 22.7509 16.7072 22.75 15.5996 22.75H8.40039C7.29277 22.75 6.41651 22.7509 5.71191 22.6934C4.99862 22.6351 4.39486 22.5132 3.84375 22.2324C2.94999 21.777 2.22297 21.05 1.76758 20.1562C1.48683 19.6051 1.36492 19.0014 1.30664 18.2881C1.27788 17.9359 1.26389 17.541 1.25684 17.0957L1.25 15.5996V5.75293C1.25002 3.81833 2.81833 2.25001 4.75293 2.25H5.9873ZM8.40723 9.75879C7.27381 9.75955 6.46875 9.76059 5.83887 9.8125C5.2177 9.8637 4.83283 9.96067 4.52832 10.1162C3.9169 10.4286 3.42027 10.9269 3.10938 11.5391C2.95458 11.844 2.85827 12.2293 2.80859 12.8506C2.75824 13.4806 2.75971 14.2856 2.76172 15.4189V15.6104C2.76372 16.7408 2.76595 17.5436 2.81836 18.1719C2.87005 18.7914 2.96673 19.1755 3.12207 19.4795C3.43406 20.0897 3.93115 20.5856 4.54199 20.8965C4.84621 21.0513 5.22998 21.1476 5.84961 21.1982C6.47803 21.2495 7.28143 21.25 8.41211 21.25H15.5889C16.723 21.25 17.5289 21.2498 18.1592 21.1982C18.7806 21.1474 19.1651 21.05 19.4697 20.8945C20.0818 20.5823 20.5794 20.0843 20.8906 19.4717C21.0455 19.1667 21.1417 18.7817 21.1914 18.1602C21.2418 17.5297 21.2403 16.724 21.2383 15.5898V15.3945C21.2363 14.2633 21.2341 13.4597 21.1816 12.8311C21.1299 12.2114 21.0333 11.8274 20.8779 11.5234C20.5657 10.9129 20.0683 10.4162 19.457 10.1055C19.1527 9.95077 18.7683 9.85491 18.1484 9.80469C17.5197 9.75376 16.7161 9.75315 15.585 9.75391L8.40723 9.75879ZM4.75293 3.75C3.64676 3.75001 2.75002 4.64676 2.75 5.75293V9.55762C3.07577 9.25035 3.44309 8.98642 3.84668 8.78027C4.3979 8.49879 5.00199 8.37719 5.71582 8.31836C6.42098 8.26025 7.29759 8.25953 8.40625 8.25879L15.584 8.25391C16.6904 8.25317 17.5656 8.25256 18.2695 8.30957C18.9822 8.36731 19.5858 8.48853 20.1367 8.76855C20.5301 8.96855 20.8891 9.22333 21.209 9.51953C21.205 9.45606 21.2032 9.39412 21.1982 9.33398C21.1475 8.71338 21.0506 8.32888 20.8955 8.02441C20.5839 7.41306 20.0869 6.91605 19.4756 6.60449C19.1711 6.44936 18.7866 6.35246 18.166 6.30176C17.5367 6.25035 16.732 6.25 15.5996 6.25H11.3379C10.938 6.25 10.6308 6.25362 10.334 6.19141C9.9461 6.11007 9.58022 5.94581 9.26172 5.70996C9.01792 5.5294 8.81652 5.297 8.55078 4.99805L8.40723 4.83691C8.10448 4.49633 7.99857 4.38066 7.88867 4.28711C7.56309 4.00996 7.16564 3.83069 6.74219 3.77148C6.59926 3.7515 6.44296 3.75 5.9873 3.75H4.75293Z" fill="#393C47"/>
</svg>
