<svg width="24" height="24" viewBox="0 0 24 24" fill="none" xmlns="http://www.w3.org/2000/svg">
<path d="M11.4986 4.52637C11.8298 4.465 12.1703 4.465 12.5015 4.52637C12.8994 4.60025 13.2669 4.78913 13.7476 5.02637L19.6558 7.94238C20.5775 8.39729 21.2048 8.69608 21.6695 9.16699C22.0615 9.56443 22.3596 10.0448 22.5425 10.5723C22.7592 11.1974 22.7495 11.8912 22.7495 12.9189V15.0557C22.7495 16.8083 22.7578 17.8577 22.4829 18.7295C21.9187 20.5182 20.5178 21.9192 18.729 22.4834C17.8573 22.7581 16.8075 22.75 15.0552 22.75C15.0367 22.7501 14.8576 22.7582 14.6919 22.7061C14.3966 22.6128 14.164 22.3813 14.0708 22.0859C14.0186 21.9202 14.0267 21.741 14.0269 21.7227V17.6484C14.0267 16.5287 13.1193 15.6211 11.9995 15.6211C10.88 15.6213 9.97239 16.5289 9.97219 17.6484V21.7227C9.97234 21.7412 9.98048 21.9203 9.92825 22.0859C9.835 22.3814 9.60269 22.6129 9.30715 22.7061C9.14014 22.7585 8.95955 22.75 8.94387 22.75C7.19157 22.75 6.14174 22.7582 5.27004 22.4834C3.4815 21.9191 2.08028 20.5181 1.51614 18.7295C1.24133 17.8578 1.24954 16.8081 1.24953 15.0557V12.9189C1.24953 11.8912 1.23992 11.1974 1.45657 10.5723C1.6394 10.0448 1.93766 9.56445 2.32961 9.16699C2.79429 8.69598 3.42157 8.39729 4.34328 7.94238L10.2515 5.02637C10.7324 4.78903 11.1005 4.60028 11.4986 4.52637ZM12.2271 6.00098C12.0768 5.97323 11.9222 5.97316 11.772 6.00098C11.626 6.02813 11.4727 6.09613 10.9156 6.37109L5.00735 9.28711C3.988 9.79021 3.64287 9.97163 3.39797 10.2197C3.16274 10.4582 2.98328 10.747 2.87356 11.0635C2.7594 11.3929 2.74954 11.782 2.74953 12.9189V15.0557C2.74954 16.9214 2.75794 17.6823 2.94582 18.2783C3.36276 19.6005 4.39913 20.6366 5.72121 21.0537C6.26431 21.2249 6.94452 21.2454 8.47219 21.248V17.6484C8.47239 15.7004 10.0515 14.1213 11.9995 14.1211C13.9477 14.1211 15.5267 15.7003 15.5269 17.6484V21.248C17.0545 21.2454 17.7348 21.2248 18.2779 21.0537C19.6001 20.6367 20.6362 19.6006 21.0532 18.2783C21.2412 17.6822 21.2495 16.9216 21.2495 15.0557V12.9189C21.2495 11.7819 21.2397 11.3929 21.1255 11.0635C21.0158 10.747 20.8364 10.4582 20.6011 10.2197C20.3562 9.97174 20.0109 9.79015 18.9917 9.28711L13.0835 6.37109C12.5262 6.09605 12.3731 6.02807 12.2271 6.00098ZM11.4927 0.533203C11.8275 0.470412 12.1715 0.470482 12.5064 0.533203C12.9089 0.608726 13.2805 0.802093 13.7661 1.04492L22.3345 5.3291C22.7048 5.51428 22.8554 5.96455 22.6704 6.33496C22.4852 6.70523 22.0349 6.85582 21.6646 6.6709L13.0952 2.38672C12.532 2.10508 12.3777 2.03553 12.23 2.00781C12.0778 1.97932 11.9212 1.97926 11.7691 2.00781C11.6215 2.0356 11.4668 2.10524 10.9038 2.38672L2.3345 6.6709C1.96415 6.85558 1.51376 6.7052 1.32864 6.33496C1.14394 5.96471 1.29455 5.51434 1.66457 5.3291L10.2329 1.04492C10.7186 0.802087 11.0902 0.608802 11.4927 0.533203Z" fill="#FDFDFF"/>
</svg>
