<svg width="24" height="24" viewBox="0 0 24 24" fill="none" xmlns="http://www.w3.org/2000/svg">
<path d="M16 9C16 8.44772 15.5523 8 15 8C14.4477 8 14 8.44772 14 9V20C14 20.5523 14.4477 21 15 21C15.5523 21 16 20.5523 16 20V9ZM21 4C21 3.44772 20.5523 3 20 3C19.4477 3 19 3.44772 19 4V20C19 20.5523 19.4477 21 20 21C20.5523 21 21 20.5523 21 20V4Z" fill="#393C47"/>
<rect width="2" height="18" rx="1" transform="matrix(1 -9.99586e-09 -1.42262e-08 -1 9 21)" fill="#393C47"/>
<path d="M4 20C4 20.5523 4.44772 21 5 21C5.55228 21 6 20.5523 6 20L6 13C6 12.4477 5.55228 12 5 12C4.44771 12 4 12.4477 4 13L4 20Z" fill="#393C47"/>
</svg>
